<?xml version="1.0" encoding="UTF-8"?>
<svg version="1.1" xmlns="http://www.w3.org/2000/svg" width="512" height="512">
<path d="M0 0 C10.10162154 7.40189614 16.12699143 17.934589 20.20703125 29.6171875 C21.17640625 29.04871094 22.14578125 28.48023438 23.14453125 27.89453125 C53.5072024 10.30989879 85.90193038 1.3928589 121.01953125 1.3671875 C121.8471698 1.36651276 122.67480835 1.36583801 123.52752686 1.36514282 C135.98653883 1.38128183 148.01490169 1.83542158 160.20703125 4.6171875 C161.35099365 4.86662109 161.35099365 4.86662109 162.51806641 5.12109375 C189.33497933 11.10132624 215.57990522 22.56992345 237.20703125 39.6171875 C238.14160156 40.34292969 239.07617188 41.06867187 240.0390625 41.81640625 C245.18174989 45.91437031 250.10058087 50.24951082 254.95703125 54.6796875 C255.47595947 55.15003418 255.9948877 55.62038086 256.52954102 56.10498047 C281.60222025 79.30965548 297.20343533 110.45126898 307.20703125 142.6171875 C308.90859375 142.67326172 308.90859375 142.67326172 310.64453125 142.73046875 C328.82562646 143.46021223 328.82562646 143.46021223 333.97265625 148.265625 C342.22523003 157.40515765 339.66685132 171.02290951 339.20703125 182.6171875 C338.42688766 193.39598297 336.06821092 203.46279756 332.01318359 213.48242188 C330.27561326 218.04047363 330.13559816 220.67048109 331.64526367 225.47631836 C332.72668439 229.59756054 332.53479903 233.81940498 332.51953125 238.0546875 C332.53564453 238.94478516 332.55175781 239.83488281 332.56835938 240.75195312 C332.57365132 247.9966276 331.35624445 254.28220151 327.39453125 260.4296875 C322.29192514 265.53229361 316.90776004 268.49052116 309.59765625 268.6875 C301.94094965 268.32793091 296.62329129 266.03344754 291.20703125 260.6171875 C288.53177367 260.83159794 286.02362616 261.45106538 283.40625 262.04296875 C280.20703125 262.6171875 280.20703125 262.6171875 276.9765625 262.53515625 C273.05720127 262.5585694 270.73998228 262.85500998 267.20703125 264.6171875 C263.00502383 269.56277103 260.30380732 275.5951922 257.40869141 281.35839844 C255.19922858 285.51157805 252.30391545 289.09752047 249.20703125 292.6171875 C252.03039462 290.7597116 254.82478885 288.89749859 257.55078125 286.8984375 C268.19555469 279.14483709 277.07419081 277.23957138 290.20703125 278.6171875 C298.43578058 280.41255099 306.01846716 285.30887071 311.03125 292.08203125 C317.43158957 302.38766276 318.82655703 312.88913918 316.625 324.75390625 C310.668908 343.81883999 287.63153932 355.81675286 271.08154297 364.76660156 C253.4006228 373.98525198 230.47794201 383.42031392 210.20703125 382.6171875 C210.15804688 383.34421875 210.1090625 384.07125 210.05859375 384.8203125 C209.51162339 392.1761208 208.53192861 399.36240974 207.20703125 406.6171875 C208.2228125 406.35164063 209.23859375 406.08609375 210.28515625 405.8125 C214.58167092 404.70175778 218.89104711 403.64938308 223.20703125 402.6171875 C224.65529297 402.26527344 224.65529297 402.26527344 226.1328125 401.90625 C249.63246491 397.10187662 275.97269475 400.82999153 296.33203125 413.7421875 C314.42454556 425.75924168 336.55860599 446.35747464 341.20703125 468.6171875 C341.8423967 474.97084203 340.29805116 480.11499077 337.20703125 485.6171875 C333.01082076 490.56526138 328.41385406 493.08310391 321.9609375 493.90234375 C312.91225422 494.45288766 306.7430969 490.17452769 299.26953125 485.6171875 C290.59391965 480.35515247 282.07043819 477.08133423 272.17578125 474.8046875 C269.20703125 473.6171875 269.20703125 473.6171875 267.30078125 471.1796875 C266.20703125 468.6171875 266.20703125 468.6171875 266.20703125 465.6171875 C261.58703125 465.6171875 256.96703125 465.6171875 252.20703125 465.6171875 C251.87703125 467.2671875 251.54703125 468.9171875 251.20703125 470.6171875 C249.70031834 472.63825813 248.76898269 473.45528302 246.34448242 474.15380859 C245.65330322 474.23195801 244.96212402 474.31010742 244.25 474.390625 C243.4751123 474.48972168 242.70022461 474.58881836 241.90185547 474.69091797 C241.07443848 474.79033691 240.24702148 474.88975586 239.39453125 474.9921875 C225.70971704 476.96179673 214.96262409 481.66165236 202.83203125 488.1171875 C182.81149626 498.75891965 161.75917344 503.57979838 139.09765625 503.890625 C137.83585793 503.90934914 137.83585793 503.90934914 136.54856873 503.92845154 C101.98804615 504.34297145 101.98804615 504.34297145 86.20703125 498.6171875 C85.04558594 498.22144531 83.88414062 497.82570313 82.6875 497.41796875 C66.77722979 491.39408028 53.32856248 480.61420681 45.20703125 465.6171875 C44.80871094 464.91335938 44.41039062 464.20953125 44 463.484375 C38.79489749 453.23012811 38.03149829 441.93788191 38.39453125 430.6796875 C38.82496802 416.39748438 35.60996456 402.55772131 32.7578125 388.63793945 C32.20703125 385.6171875 32.20703125 385.6171875 32.20703125 382.6171875 C31.61019531 382.59140625 31.01335937 382.565625 30.3984375 382.5390625 C-3.10243012 380.34881261 -33.94785625 364.04754778 -59.79296875 343.6171875 C-60.34879639 343.18043701 -60.90462402 342.74368652 -61.47729492 342.29370117 C-68.82274926 336.374923 -73.12180315 328.89215659 -74.79296875 319.6171875 C-75.8853932 309.02673934 -73.53087844 298.98496562 -66.79296875 290.6171875 C-59.74304165 282.99489008 -51.61398629 278.32377324 -41.13671875 277.5859375 C-27.33562083 277.76995214 -17.42047647 284.47481942 -6.79296875 292.6171875 C-7.13030029 292.11904541 -7.46763184 291.62090332 -7.81518555 291.10766602 C-9.37410168 288.80089687 -10.92729629 286.49032742 -12.48046875 284.1796875 C-13.01091797 283.39658203 -13.54136719 282.61347656 -14.08789062 281.80664062 C-23.79296875 267.33833397 -23.79296875 267.33833397 -23.79296875 263.6171875 C-25.37078125 263.71 -25.37078125 263.71 -26.98046875 263.8046875 C-32.13935593 263.84160261 -36.8824927 262.49734995 -41.83984375 261.17578125 C-44.73461025 260.62822621 -46.10875786 260.51804942 -48.79296875 261.6171875 C-50.4633578 262.72410853 -50.4633578 262.72410853 -52.04296875 264.0546875 C-58.03525875 268.44394451 -64.04792652 269.19512265 -71.33984375 268.2109375 C-78.36168621 266.51138327 -82.57046737 262.21763902 -86.6640625 256.484375 C-88.86438825 252.84508189 -88.92143058 249.78410902 -88.92578125 245.62890625 C-88.92707031 244.44748047 -88.92835937 243.26605469 -88.9296875 242.04882812 C-88.92582031 240.81326172 -88.92195313 239.57769531 -88.91796875 238.3046875 C-88.92376953 236.46874023 -88.92376953 236.46874023 -88.9296875 234.59570312 C-88.92839844 233.41041016 -88.92710938 232.22511719 -88.92578125 231.00390625 C-88.92465332 229.92326904 -88.92352539 228.84263184 -88.92236328 227.72924805 C-88.79296875 224.6171875 -88.79296875 224.6171875 -88.22900391 221.42456055 C-87.64097035 217.63855949 -88.68689999 215.30381637 -90.04296875 211.7421875 C-94.11126335 200.46268554 -96.28229736 188.60294553 -96.79296875 176.6171875 C-96.82551758 175.89563477 -96.85806641 175.17408203 -96.89160156 174.43066406 C-96.99105127 171.93035789 -97.05289474 169.43139429 -97.10546875 166.9296875 C-97.13535889 166.13328857 -97.16524902 165.33688965 -97.19604492 164.51635742 C-97.25199816 158.7291084 -96.00240759 154.46244636 -92.79296875 149.6171875 C-88.31307124 145.13728999 -83.53613804 143.5194857 -77.26953125 143.421875 C-75.65222737 143.43502381 -74.03497855 143.45866098 -72.41796875 143.4921875 C-71.58652344 143.50121094 -70.75507812 143.51023438 -69.8984375 143.51953125 C-67.86315538 143.5429253 -65.82802311 143.57879025 -63.79296875 143.6171875 C-63.60734375 142.66585937 -63.60734375 142.66585937 -63.41796875 141.6953125 C-60.98207201 130.67287976 -56.84259936 119.71644873 -51.79296875 109.6171875 C-53.27796875 110.1121875 -53.27796875 110.1121875 -54.79296875 110.6171875 C-72.33717052 111.91125801 -88.78316672 108.52668259 -102.41967773 96.82641602 C-109.23171571 90.73042521 -118.22815017 82.63397211 -118.99609375 73.09375 C-119.15499134 63.42747977 -119.15499134 63.42747977 -115.79296875 59.6171875 C-111.68008818 55.70493525 -107.17958126 52.95141675 -102.2578125 50.14453125 C-92.74826071 44.25192467 -87.16480172 34.93486076 -81.43701172 25.59277344 C-74.17408661 13.75637668 -66.45741971 2.22282514 -53.79296875 -4.3828125 C-53.05691406 -4.79273438 -52.32085937 -5.20265625 -51.5625 -5.625 C-35.66256125 -12.95565538 -14.22642746 -9.23913382 0 0 Z " fill="#010101" transform="translate(144.79296875,8.3828125)"/>
<path d="M0 0 C1.66095703 0.62068359 1.66095703 0.62068359 3.35546875 1.25390625 C35.15530917 13.98077804 55.93778106 41.32117785 69.24609375 71.859375 C71.33426012 77.22198124 72.77019052 82.72860639 74.125 88.3125 C74.28387695 88.963396 74.44275391 89.61429199 74.60644531 90.28491211 C77.40198433 102.43373614 78.41407461 114.5603435 78.375 127 C78.3737915 127.7182193 78.37258301 128.4364386 78.37133789 129.17642212 C78.22894669 160.55240986 68.84574226 191.31030607 49 216 C48.60087402 216.50450684 48.20174805 217.00901367 47.79052734 217.52880859 C34.08386255 234.7628854 18.26241265 246.696125 -1 257.1875 C-2.32644531 257.92915405 -2.32644531 257.92915405 -3.6796875 258.68579102 C-8.90504616 261.4448876 -12.07057435 262.64429451 -18 261 C-19.00160156 260.76023437 -20.00320313 260.52046875 -21.03515625 260.2734375 C-32.99103563 256.72524104 -43.32616186 251.7398066 -52.9140625 243.734375 C-58.34150858 239.22166702 -62.95789493 238.3434031 -69.8984375 238.515625 C-76.32143642 239.51871299 -81.01933877 243.2772088 -85.8203125 247.453125 C-89.11859183 250.22537214 -92.6447519 252.16697941 -96.5 254.0625 C-97.19270996 254.40466553 -97.88541992 254.74683105 -98.59912109 255.09936523 C-116.01321223 263.43345009 -116.01321223 263.43345009 -125 261 C-127.75497727 259.82081119 -130.37195183 258.4372982 -133 257 C-133.74330566 256.59845703 -134.48661133 256.19691406 -135.25244141 255.78320312 C-170.67293153 236.39004988 -195.82222493 206.80191429 -207.2355957 167.84277344 C-210.72330185 155.40475303 -212.35449757 143.36550624 -212.31567383 130.44726562 C-212.31252371 128.26641278 -212.33603414 126.08693557 -212.36132812 123.90625 C-212.48227471 97.1096946 -203.60295714 71.06657213 -189.1496582 48.65625 C-186.62577641 44.62834676 -185.27928573 41.90640097 -186 37 C-186.89831016 34.69769234 -186.89831016 34.69769234 -188 33 C-185.6698343 29.26105217 -183.30815595 25.93187281 -180 23 C-177.37109375 22.65234375 -177.37109375 22.65234375 -174.625 22.9375 C-171.0251724 23.28858209 -169.56263302 23.38369435 -166.53125 21.31640625 C-164.88619501 19.73277377 -163.25925775 18.13016118 -161.6484375 16.51171875 C-146.34474957 1.99804421 -126.40832377 -2.65596097 -106.07421875 -2.30859375 C-94.13881868 -1.86228942 -84.18186211 1.20403409 -74.0625 7.609375 C-69.6084229 9.6318896 -65.61272814 9.95250966 -61.04052734 8.28564453 C-59.04145428 7.32469722 -57.11779187 6.27973599 -55.1875 5.1875 C-38.84659812 -3.51839081 -17.67905356 -6.77995542 0 0 Z " fill="#83A2E2" transform="translate(333,75)"/>
<path d="M0 0 C0.79535156 0.41894531 1.59070313 0.83789062 2.41015625 1.26953125 C9.0886507 5.01650727 14.49060825 9.71751894 20 15 C20.68964844 15.62648438 21.37929688 16.25296875 22.08984375 16.8984375 C28.09664251 22.53650208 32.55350387 29.12354015 37 36 C37.56589844 36.85464844 38.13179688 37.70929688 38.71484375 38.58984375 C40.92301729 42.16818591 42.39359684 44.73021937 41.875 49 C41 52 41 52 40 53 C34.31566352 53.52503108 31.42578942 52.49039205 26.75 49.3125 C15.51300112 41.96467126 2.68356708 35.75142962 -10.94140625 35.37109375 C-11.62074219 35.57863281 -12.30007813 35.78617187 -13 36 C-13.433125 36.82242188 -13.86625 37.64484375 -14.3125 38.4921875 C-16 41 -16 41 -19.43359375 41.69921875 C-20.76804474 41.72174672 -22.10318325 41.71692405 -23.4375 41.6875 C-25.41556641 41.72423828 -25.41556641 41.72423828 -27.43359375 41.76171875 C-31 41 -31 41 -33.08203125 37.99609375 C-33.71496094 37.00738281 -34.34789062 36.01867187 -35 35 C-51.13694849 30.94395619 -70.85484983 40.66024388 -84.50854492 48.02514648 C-114.43268156 64.12379369 -153.82541269 70.22128617 -187 61 C-191.15769167 59.59804371 -195.07275444 57.95196923 -199 56 C-200.17949219 55.42958984 -200.17949219 55.42958984 -201.3828125 54.84765625 C-214.25983082 48.18480879 -222.76679143 39.270609 -227.4375 25.4375 C-229.00333911 19.86711067 -229.4677958 14.75648716 -229 9 C-225.6685644 10.06000224 -222.40909559 11.21605578 -219.1796875 12.55078125 C-211.07531426 15.88598434 -203.00759143 18.74126583 -194.5 20.875 C-193.70062012 21.07778564 -192.90124023 21.28057129 -192.07763672 21.48950195 C-171.52038871 26.41498623 -148.39505748 25.74495659 -128.01123047 20.51269531 C-126.19545584 20.04982487 -124.3657267 19.64256029 -122.53515625 19.2421875 C-109.86282231 16.40436754 -98.87297309 10.50763136 -87.53588867 4.36547852 C-61.2848945 -9.67564642 -27.14760085 -14.62583411 0 0 Z " fill="#5B83D7" transform="translate(428,433)"/>
<path d="M0 0 C2.02903219 0.01071886 4.05717595 0.00002726 6.08618164 -0.01269531 C24.40076748 -0.03592419 41.6602863 3.4235471 58.90844727 9.44824219 C60.60674683 10.04088867 60.60674683 10.04088867 62.33935547 10.64550781 C71.34118048 13.85792128 79.77664103 17.57390491 88.09594727 22.26074219 C88.70905762 22.59509277 89.32216797 22.92944336 89.95385742 23.27392578 C100.62800004 29.11961957 109.88201244 36.34458043 119.09594727 44.26074219 C120.08079102 45.1025 121.06563477 45.94425781 122.08032227 46.81152344 C127.1989923 51.30199306 131.79618565 55.9857769 136.09594727 61.26074219 C136.91708008 62.24429688 137.73821289 63.22785156 138.58422852 64.24121094 C153.66993557 82.61632347 170.50319943 107.97133769 172.09594727 132.26074219 C170.5137414 133.22093582 168.93013396 134.17882017 167.34594727 135.13574219 C166.46422852 135.66941406 165.58250977 136.20308594 164.67407227 136.75292969 C162.51170869 138.01758475 160.34106916 139.1548736 158.09594727 140.26074219 C157.93626465 139.73456299 157.77658203 139.20838379 157.61206055 138.66625977 C150.00146343 113.9358247 139.28825465 90.8181289 122.09594727 71.26074219 C120.98413086 69.96716797 120.98413086 69.96716797 119.84985352 68.64746094 C103.00609517 49.40996224 79.88317737 35.09386836 54.09594727 32.26074219 C37.27773927 31.2170894 23.60438764 34.68310722 8.42407227 41.77246094 C7.32579102 42.26359375 6.22750977 42.75472656 5.09594727 43.26074219 C4.4346582 43.56109375 3.77336914 43.86144531 3.09204102 44.17089844 C-0.32788784 44.3248287 -3.12056535 42.52750359 -6.09155273 41.01074219 C-7.44413639 40.35253129 -8.79829928 39.69755533 -10.15405273 39.04589844 C-11.12858398 38.57627686 -11.12858398 38.57627686 -12.12280273 38.09716797 C-29.64193554 29.87066729 -50.81078453 30.10432071 -68.90405273 36.26074219 C-80.36149999 40.54924075 -90.3601551 46.67076013 -99.90405273 54.26074219 C-100.91209961 55.04964844 -101.92014648 55.83855469 -102.95874023 56.65136719 C-108.43091924 60.97634313 -108.43091924 60.97634313 -111.15405273 67.13574219 C-111.1459612 70.42500955 -111.1459612 70.42500955 -108.90405273 73.26074219 C-109.62592773 73.96199219 -110.34780273 74.66324219 -111.09155273 75.38574219 C-112.58264778 76.8393516 -113.87467056 78.21864088 -115.06811523 79.92871094 C-116.21655273 81.57324219 -116.21655273 81.57324219 -118.90405273 84.26074219 C-120.18280273 84.17824219 -121.46155273 84.09574219 -122.77905273 84.01074219 C-125.50549227 83.85334996 -126.49888617 83.90821908 -128.58764648 85.72558594 C-130.58918917 88.45670773 -132.26987497 91.30239533 -133.90405273 94.26074219 C-134.53730469 95.38778564 -134.53730469 95.38778564 -135.18334961 96.53759766 C-141.44588538 107.78249446 -146.80914447 119.05958696 -150.90405273 131.26074219 C-151.24178711 132.24558594 -151.57952148 133.23042969 -151.92749023 134.24511719 C-152.60425029 136.24435332 -153.25816678 138.25131923 -153.90405273 140.26074219 C-158.52405273 137.62074219 -163.14405273 134.98074219 -167.90405273 132.26074219 C-164.66788736 109.60758458 -152.03005693 87.0014068 -137.90405273 69.26074219 C-137.4727002 68.71804687 -137.04134766 68.17535156 -136.59692383 67.61621094 C-111.50293845 36.31973265 -77.47760436 14.0917858 -38.40405273 4.57324219 C-37.57405762 4.37053711 -36.7440625 4.16783203 -35.88891602 3.95898438 C-23.97651346 1.18951838 -12.22346038 -0.07640581 0 0 Z " fill="#3C474F" transform="translate(263.904052734375,24.7392578125)"/>
<path d="M0 0 C7.83938705 0.18347502 13.2481626 2.13916822 20 6 C21.77925421 7.00347519 23.55853002 8.00691223 25.33813477 9.00976562 C26.67229636 9.76337638 28.00477841 10.5199671 29.33569336 11.27929688 C34.14892516 14.01093543 39.02932947 16.5788285 43.95605469 19.09936523 C53.15809018 23.81799927 61.77282237 28.68919306 70 35 C71.03511719 35.79019531 72.07023437 36.58039063 73.13671875 37.39453125 C78.31170686 41.51763972 82.71926581 45.66668847 86.8125 50.875 C90.33992976 55.32838007 92.60457521 58.07959457 98 60 C104.77493077 60.7690462 110.12153817 60.72327355 116 57 C118.61764664 54.55625424 120.99460069 51.92307135 123.375 49.25 C130.48675851 41.34148847 137.65529611 34.42687889 146.8125 28.9375 C147.56023682 28.48342773 148.30797363 28.02935547 149.07836914 27.56152344 C157.29329902 22.66947732 165.80805072 18.33181423 174.3449707 14.03491211 C180.69114891 10.81989616 186.72097821 7.398531 192.63183594 3.43432617 C196.10128919 1.33298206 198.99222064 0.61135617 203 0 C204.41925781 -0.28617187 204.41925781 -0.28617187 205.8671875 -0.578125 C209 0 209 0 210.46069336 1.57397461 C212.02433663 3.89161716 213.43000236 6.25741964 214.8125 8.6875 C215.85143868 10.43261655 216.89312512 12.17610007 217.9375 13.91796875 C218.44925781 14.78083496 218.96101562 15.64370117 219.48828125 16.53271484 C222.2542739 21.04710788 225.4078889 25.27490713 228.55078125 29.53125 C229.26814453 30.75328125 229.26814453 30.75328125 230 32 C229.67 32.99 229.34 33.98 229 35 C226.94970703 35.95141602 226.94970703 35.95141602 224.2578125 36.75390625 C223.27296875 37.05103516 222.288125 37.34816406 221.2734375 37.65429688 C220.23445312 37.95400391 219.19546875 38.25371094 218.125 38.5625 C216.62453125 39.01786133 216.62453125 39.01786133 215.09375 39.48242188 C205.59677566 42.2983852 196.31927411 44.13987624 186.41015625 44.4609375 C183.05868255 45.21053778 181.97994121 46.18663142 180 49 C179.17910815 52.54152207 178.94688541 56.17685911 178.75 59.80078125 C178.4738544 62.18985913 178.14409924 63.87808849 177 66 C173.8979151 68.10839937 170.59672095 69.02438108 167 70 C166.07364746 70.2676416 165.14729492 70.5352832 164.19287109 70.81103516 C120.19574984 82.89205822 73.83458604 82.74875526 31 66 C30.91363281 64.90300781 30.82726562 63.80601562 30.73828125 62.67578125 C30.59751928 61.22124094 30.45552705 59.76681933 30.3125 58.3125 C30.23225586 57.2306543 30.23225586 57.2306543 30.15039062 56.12695312 C29.7564727 52.37616937 29.17601177 50.26349067 27.04296875 47.0703125 C22.79406714 44.1795322 19.03876076 43.98748217 14 43.5625 C5.87962165 42.67274507 -1.83224008 41.25625414 -9.6875 39 C-11.02264648 38.62597046 -11.02264648 38.62597046 -12.38476562 38.24438477 C-19.14152348 36.23410425 -19.14152348 36.23410425 -22 33 C-20.734375 31.1015625 -19.46875 29.203125 -18.203125 27.3046875 C-17.61806183 26.42709274 -17.61806183 26.42709274 -17.0211792 25.5317688 C-16.61715881 24.92573822 -16.21313843 24.31970764 -15.796875 23.6953125 C-15.37857422 23.06786133 -14.96027344 22.44041016 -14.52929688 21.79394531 C-13.26953125 19.90429688 -12.00976562 18.01464844 -10.75 16.125 C-10.1419754 15.2129631 -10.1419754 15.2129631 -9.52166748 14.28250122 C-7.29484049 10.94226074 -5.06801351 7.60202026 -2.84118652 4.26177979 C-2.47432739 3.71149109 -2.10746826 3.16120239 -1.72949219 2.59423828 C-1.15875977 1.73813965 -0.58802734 0.88204102 0 0 Z " fill="#82A1E1" transform="translate(162,332)"/>
<path d="M0 0 C0 0.66 0 1.32 0 2 C-1.66448337 3.18891669 -3.38559792 4.29865981 -5.125 5.375 C-16.77508179 12.98125175 -26.67818522 21.80226394 -35 33 C-35.763125 33.96421875 -36.52625 34.9284375 -37.3125 35.921875 C-62.36328335 68.33129429 -73.5694549 110.30500799 -68.50390625 150.8828125 C-67.82989084 154.65272918 -66.98833332 158.30069618 -66 162 C-65.64354605 163.46330203 -65.28812974 164.9268571 -64.93359375 166.390625 C-62.32597499 176.76700463 -58.66894156 186.38589155 -54 196 C-53.70254883 196.62471191 -53.40509766 197.24942383 -53.09863281 197.89306641 C-40.28976397 224.50089503 -17.77026856 249.11061143 9 262 C1.22632354 264.27849138 -3.63584991 263.9796186 -10.86083984 260.16992188 C-11.5667627 259.78384766 -12.27268555 259.39777344 -13 259 C-13.74330566 258.59845703 -14.48661133 258.19691406 -15.25244141 257.78320312 C-50.67293153 238.39004988 -75.82222493 208.80191429 -87.2355957 169.84277344 C-90.72330185 157.40475303 -92.35449757 145.36550624 -92.31567383 132.44726562 C-92.31252371 130.26641278 -92.33603414 128.08693557 -92.36132812 125.90625 C-92.48227471 99.1096946 -83.60295714 73.06657213 -69.1496582 50.65625 C-66.62577641 46.62834676 -65.27928573 43.90640097 -66 39 C-66.89831016 36.69769234 -66.89831016 36.69769234 -68 35 C-65.6698343 31.26105217 -63.30815595 27.93187281 -60 25 C-57.37109375 24.65234375 -57.37109375 24.65234375 -54.625 24.9375 C-51.0251724 25.28858209 -49.56263302 25.38369435 -46.53125 23.31640625 C-44.88619501 21.73277377 -43.25925775 20.13016118 -41.6484375 18.51171875 C-31.48457262 8.87253716 -14.2339348 0 0 0 Z " fill="#5B82D7" transform="translate(213,73)"/>
<path d="M0 0 C9.11513749 5.17170921 15.21088652 13.99200459 18 24 C18.44921875 27.390625 18.44921875 27.390625 18 31 C15.97412712 33.21983944 14.23959642 34.78975135 11.875 36.5625 C10.57820884 37.60725232 9.28535252 38.65690405 7.99609375 39.7109375 C6.99811768 40.52062988 6.99811768 40.52062988 5.97998047 41.34667969 C-5.81130973 51.19262509 -15.89799089 63.15820212 -24.30419922 75.9909668 C-26.82944685 79.79948059 -28.48810057 81.91023718 -33 82.9375 C-47.79429225 85.84875305 -62.60109127 85.76832606 -75.47265625 77.390625 C-82.14549973 72.53359703 -88.17959074 66.87534568 -91 59 C-90.16597656 58.5153125 -89.33195312 58.030625 -88.47265625 57.53125 C-73.2190751 48.44549719 -64.22893202 37.29344802 -54.83959961 22.45800781 C-42.03159705 2.28813577 -24.49033745 -12.8054052 0 0 Z " fill="#323940" transform="translate(132,19)"/>
<path d="M0 0 C0.34770739 9.10478229 -0.03560069 17.85270891 -1.3125 26.875 C-1.48906128 28.15636841 -1.48906128 28.15636841 -1.66918945 29.46362305 C-2.66836109 36.08449356 -3.98489415 42.9697883 -7 49 C-7.89460938 48.93039063 -8.78921875 48.86078125 -9.7109375 48.7890625 C-18.34466334 48.40247776 -24.43272508 49.07950216 -31 55 C-33.02217034 57.52771292 -34.59135552 60.09098535 -36 63 C-36.495 63.99 -36.495 63.99 -37 65 C-37.15067214 66.4465242 -37.24861036 67.8987934 -37.31640625 69.3515625 C-37.35830078 70.20234375 -37.40019531 71.053125 -37.44335938 71.9296875 C-37.48267578 72.81914062 -37.52199219 73.70859375 -37.5625 74.625 C-37.60568359 75.5221875 -37.64886719 76.419375 -37.69335938 77.34375 C-37.79956861 79.56234283 -37.90161194 81.7810488 -38 84 C-39.60256108 84.50512244 -41.20711792 85.00391627 -42.8125 85.5 C-43.70582031 85.7784375 -44.59914063 86.056875 -45.51953125 86.34375 C-48 87 -48 87 -51 87 C-50.74605469 86.01902344 -50.49210937 85.03804688 -50.23046875 84.02734375 C-44.63137831 62.71988086 -44.63137831 62.71988086 -43.078125 40.87109375 C-43.10536723 39.32619258 -43.13137182 37.78126917 -43.15625 36.23632812 C-43.19952561 33.83084361 -43.25032791 31.42653812 -43.32226562 29.02172852 C-43.38912026 26.67966723 -43.42368651 24.33888594 -43.453125 21.99609375 C-43.48206848 21.28343857 -43.51101196 20.57078339 -43.54083252 19.83653259 C-43.56136215 15.9776782 -43.03172057 13.57462279 -40.6328125 10.62597656 C-30.30905687 0.32902594 -14.13263906 -6.56906001 0 0 Z " fill="#5A82D5" transform="translate(469,169)"/>
<path d="M0 0 C12.28569805 0.05583073 21.41831917 4.79888944 30.67016602 12.56347656 C33.63154508 16.04375427 33.61017926 17.52010577 33.41015625 22.01953125 C33.35444458 23.97705322 33.35444458 23.97705322 33.29760742 25.97412109 C33.26863373 26.66141296 33.23966003 27.34870483 33.20980835 28.05682373 C32.36279982 49.33657951 35.80121942 69.0514991 42.0625 89.375 C37.19353697 88.77880045 32.73459049 87.80523178 28.0625 86.375 C28.05839111 85.81103516 28.05428223 85.24707031 28.05004883 84.66601562 C28.01680235 82.06800297 27.9461323 79.47224077 27.875 76.875 C27.86919922 75.988125 27.86339844 75.10125 27.85742188 74.1875 C27.61906302 66.98376563 25.6236897 62.05095288 20.58520508 56.85009766 C15.40227681 52.25468426 11.07065568 51.11220898 4.25 51.25 C2.50783203 51.27707031 2.50783203 51.27707031 0.73046875 51.3046875 C-0.14996094 51.32789063 -1.03039062 51.35109375 -1.9375 51.375 C-7.86232553 39.52534893 -9.11597989 25.63263253 -9.125 12.5625 C-9.13724609 11.60923828 -9.14949219 10.65597656 -9.16210938 9.67382812 C-9.16404297 8.76439453 -9.16597656 7.85496094 -9.16796875 6.91796875 C-9.17207764 6.09321045 -9.17618652 5.26845215 -9.18041992 4.41870117 C-8.56193945 -0.78461544 -4.21676882 0.04280984 0 0 Z " fill="#5A81D5" transform="translate(72.9375,166.625)"/>
<path d="M0 0 C3.16827959 0.58671844 6.2888514 1.30691828 9.4140625 2.0859375 C18.22975774 4.27623582 27.02448895 6.32640012 36 7.75 C37.07241943 7.92281494 37.07241943 7.92281494 38.16650391 8.09912109 C61.17954287 11.56024026 85.15490638 11.38174895 108 7 C109.28052246 6.75926758 109.28052246 6.75926758 110.58691406 6.51367188 C118.59122531 4.9853309 126.36831907 3.35658695 134.04589844 0.5859375 C136 0 136 0 139 0 C138.47000499 8.66673022 138.47000499 8.66673022 135.23095703 11.60449219 C132.8875828 12.88534917 130.5510523 13.906111 128.0625 14.875 C126.76687134 15.42921631 126.76687134 15.42921631 125.44506836 15.99462891 C122.97762331 17.03718523 120.49503274 18.02570878 118 19 C116.9171875 19.4434375 115.834375 19.886875 114.71875 20.34375 C108.31474655 22.83001016 101.70045947 24.5182459 95 26 C94.32130859 26.17208984 93.64261719 26.34417969 92.94335938 26.52148438 C85.85483827 28.1744922 78.91918363 28.30619852 71.66015625 28.26074219 C69.63510955 28.25005336 67.61095685 28.26067684 65.5859375 28.2734375 C44.86467579 28.23280758 17.35007286 22.89789876 1 9 C0.390625 6.73828125 0.390625 6.73828125 0.25 4.3125 C0.19328125 3.50425781 0.1365625 2.69601562 0.078125 1.86328125 C0.05234375 1.24839844 0.0265625 0.63351562 0 0 Z " fill="#FA859A" transform="translate(197,415)"/>
<path d="M0 0 C2.83203125 1.90625 2.83203125 1.90625 5.8125 4.5 C12.16142884 9.77850284 18.92080478 13.10139569 26.4453125 16.40625 C30 18 30 18 33 20 C32.24976563 20.54527344 31.49953125 21.09054687 30.7265625 21.65234375 C14.8921319 33.31491512 14.8921319 33.31491512 1.9375 47.9375 C0 50 0 50 -2.8046875 50.4921875 C-7.14972527 49.82290295 -8.5977443 47.54239747 -11.0625 44.1875 C-18.67838189 34.51521045 -28.06432854 27.20823224 -38 20 C-35.43528434 17.43528434 -32.94106411 16.69978198 -29.5625 15.375 C-21.61401096 12.12497852 -14.89411441 7.58783575 -8.56640625 1.7578125 C-5.33698978 -0.45411659 -3.84434231 -0.66943733 0 0 Z " fill="#3C4750" transform="translate(269,328)"/>
<path d="M0 0 C1.22009766 0.41572266 1.22009766 0.41572266 2.46484375 0.83984375 C4.30193788 1.44273541 6.14285347 2.03893478 8.00830078 2.54736328 C21.19048718 6.16237226 21.19048718 6.16237226 24.15673828 10.81396484 C25.85004328 15.05077407 26.60160618 19.49874155 27.48681641 23.95849609 C29.88919981 33.51545613 38.41022895 42.28051774 46.62109375 47.26953125 C50.0362214 49.26582193 53.50224105 51.15286887 57 53 C57 53.33 57 53.66 57 54 C40.03040682 53.23387841 23.0811186 46.05984902 11 34 C3.0626655 24.24623703 -1.02163002 12.57172498 0 0 Z " fill="#2D65CC" transform="translate(199,442)"/>
<path d="M0 0 C5.89722942 2.69663414 9.071429 5.51719185 12.29296875 11.12890625 C14.13918773 16.6675632 14.23929748 22.76407428 11.91796875 28.19140625 C8.92600923 33.53107124 3.95253235 37.28743397 -0.70703125 41.12890625 C-3.47543325 38.49672246 -5.67497951 35.89595169 -7.73046875 32.6796875 C-8.5503125 31.40641602 -8.5503125 31.40641602 -9.38671875 30.10742188 C-9.94617188 29.22763672 -10.505625 28.34785156 -11.08203125 27.44140625 C-12.19348932 25.7079991 -13.30546565 23.97492414 -14.41796875 22.2421875 C-15.22959473 20.97109131 -15.22959473 20.97109131 -16.05761719 19.67431641 C-18.18862051 16.38570766 -20.3991165 13.15372621 -22.62744141 9.93041992 C-23.70703125 8.12890625 -23.70703125 8.12890625 -23.70703125 6.12890625 C-21.80859375 4.65625 -21.80859375 4.65625 -19.33203125 3.06640625 C-18.51992188 2.53917969 -17.7078125 2.01195312 -16.87109375 1.46875 C-11.51279081 -1.84875525 -6.00214064 -1.93142476 0 0 Z " fill="#81A0DE" transform="translate(433.70703125,302.87109375)"/>
<path d="M0 0 C8.93266937 3.69793302 8.93266937 3.69793302 10.8203125 7.76928711 C11.08914914 11.10673332 9.6436675 12.66362093 7.7734375 15.39453125 C7.07089844 16.43287109 6.36835937 17.47121094 5.64453125 18.54101562 C4.89558594 19.62060547 4.14664063 20.70019531 3.375 21.8125 C2.28638672 23.41448242 2.28638672 23.41448242 1.17578125 25.04882812 C-2.4813738 30.41508921 -6.19926851 35.73455973 -10 41 C-16.69507733 38.70454492 -20.40263216 35.03843888 -24 29 C-25.78244185 23.65267444 -26.02356669 17.24616865 -24.31640625 11.83203125 C-19.21838976 2.24945253 -10.42507406 -1.59119551 0 0 Z " fill="#81A0DF" transform="translate(111,302)"/>
<path d="M0 0 C3 1 3 1 5.375 3.0625 C8.34147012 5.25203747 10.35649309 5.57105649 14.0234375 5.40625 C17.14280541 4.76511509 19.39493381 2.77366209 22 1 C26.01340549 0.44642683 28.047557 0.40472312 31.5 2.5625 C33 5 33 5 33.25 8.3125 C31.29104468 14.09141821 27.05401705 17.47299148 21.65625 20.171875 C15.54053894 22.07853786 8.27595603 22.15811967 2.2265625 20.01953125 C-0.00031549 18.81731307 -1.98539942 17.52755429 -4 16 C-4.845625 15.401875 -5.69125 14.80375 -6.5625 14.1875 C-8.42506188 11.35316671 -8.63100304 9.26376302 -8.44921875 5.91015625 C-8 4 -8 4 -5.875 1.4375 C-3 0 -3 0 0 0 Z " fill="#020304" transform="translate(254,227)"/>
<path d="M0 0 C3.37629194 0.78131663 6.1596323 1.97665342 9.25 3.5625 C10.58804688 4.24505859 10.58804688 4.24505859 11.953125 4.94140625 C12.96632813 5.46541016 12.96632813 5.46541016 14 6 C12.71059117 9.47054405 11.20415802 12.45553351 9.171875 15.546875 C8.61886719 16.3925 8.06585938 17.238125 7.49609375 18.109375 C6.63177734 19.41648437 6.63177734 19.41648437 5.75 20.75 C4.90888672 22.03390625 4.90888672 22.03390625 4.05078125 23.34375 C0.39580129 28.91485109 -3.29704494 34.4607021 -7 40 C-10.75305445 39.31936595 -13.50567892 38.362366 -16.8125 36.4375 C-17.60269531 35.98246094 -18.39289063 35.52742188 -19.20703125 35.05859375 C-20.09455078 34.53458984 -20.09455078 34.53458984 -21 34 C-19.47264895 29.65099338 -17.18751371 25.98043177 -14.6484375 22.16796875 C-14.22954254 21.53135818 -13.81064758 20.89474762 -13.37905884 20.23884583 C-12.04856091 18.21893062 -10.71189328 16.20318664 -9.375 14.1875 C-8.46833866 12.81342237 -7.56208421 11.43907617 -6.65625 10.06445312 C-4.44219815 6.7065081 -2.22260621 3.35228844 0 0 Z " fill="#EAB760" transform="translate(134,319)"/>
<path d="M0 0 C2.33059293 1.53930182 3.32470832 2.93723697 4.76782227 5.31982422 C5.2612915 6.12025146 5.75476074 6.92067871 6.26318359 7.74536133 C6.77389404 8.59493408 7.28460449 9.44450684 7.81079102 10.31982422 C8.87104274 12.05167139 9.93352736 13.78215363 10.99829102 15.51123047 C11.51004883 16.34283691 12.02180664 17.17444336 12.54907227 18.03125 C14.83493177 21.64102881 17.36180796 25.03846719 19.98657227 28.40966797 C20.99829102 30.31982422 20.99829102 30.31982422 20.93579102 32.39794922 C19.66433191 35.00444039 18.21847725 35.76027979 15.68579102 37.13232422 C14.9059082 37.57189453 14.12602539 38.01146484 13.32250977 38.46435547 C10.54225236 39.4876771 9.70972814 39.45484441 6.99829102 38.31982422 C5.13891602 36.09838867 5.13891602 36.09838867 3.24829102 33.18310547 C2.55735352 32.13058594 1.86641602 31.07806641 1.15454102 29.99365234 C0.44297852 28.88441406 -0.26858398 27.77517578 -1.00170898 26.63232422 C-1.71327148 25.54242188 -2.42483398 24.45251953 -3.15795898 23.32958984 C-4.49138308 21.2859184 -5.8200387 19.23912198 -7.14233398 17.18823242 C-8.46582663 15.14651563 -9.83578557 13.13460065 -11.23608398 11.14477539 C-13.00170898 8.31982422 -13.00170898 8.31982422 -13.00170898 5.31982422 C-11.26335841 4.25883094 -9.51051094 3.22155939 -7.75170898 2.19482422 C-6.77717773 1.61474609 -5.80264648 1.03466797 -4.79858398 0.43701172 C-2.00170898 -0.68017578 -2.00170898 -0.68017578 0 0 Z " fill="#EAB860" transform="translate(398.001708984375,319.68017578125)"/>
<path d="M0 0 C-0.33 0.66 -0.66 1.32 -1 2 C-0.12472656 2.2578125 0.75054687 2.515625 1.65234375 2.78125 C9.90785789 5.78675807 17.09157735 11.96544799 24.0625 17.25 C24.61043213 17.66185547 25.15836426 18.07371094 25.72290039 18.49804688 C28.63250427 20.74242955 30.96600477 22.93141204 33 26 C31.98094797 27.35069618 30.93365675 28.68011626 29.875 30 C29.29492188 30.7425 28.71484375 31.485 28.1171875 32.25 C26 34 26 34 23.07421875 34.61328125 C18.87671079 33.77591308 17.34975079 31.47093051 14.9375 28.1875 C7.32161811 18.51521045 -2.06432854 11.20823224 -12 4 C-8.59914501 0.59914501 -4.67235329 -1.5574511 0 0 Z " fill="#323940" transform="translate(243,344)"/>
<path d="M0 0 C1.14082031 -0.01998047 2.28164062 -0.03996094 3.45703125 -0.06054688 C5.10251953 -0.05958008 5.10251953 -0.05958008 6.78125 -0.05859375 C8.28268555 -0.06137329 8.28268555 -0.06137329 9.81445312 -0.06420898 C13.23025924 0.5739257 14.40962523 1.70531676 16.5 4.4375 C17 7.9375 17 7.9375 16.5 11.4375 C14.41678206 14.15129724 13.21738952 15.29415331 9.83032227 15.97094727 C6.57292918 16.00656882 3.32005913 16.03141152 0.0625 16 C-1.63616211 16.03577148 -1.63616211 16.03577148 -3.36914062 16.07226562 C-12.62314183 16.05590616 -12.62314183 16.05590616 -15.78125 13.12890625 C-17.5 10.4375 -17.5 10.4375 -17.5625 6.8125 C-14.92308695 -1.57151793 -7.4219566 -0.04612515 0 0 Z " fill="#FD889F" transform="translate(192.5,233.5625)"/>
<path d="M0 0 C1.09248047 -0.00515625 2.18496094 -0.0103125 3.31054688 -0.015625 C4.44685547 -0.00015625 5.58316406 0.0153125 6.75390625 0.03125 C8.45256836 0.00804687 8.45256836 0.00804687 10.18554688 -0.015625 C18.40528466 0.0231245 18.40528466 0.0231245 22.56640625 2.34375 C24.31640625 4.53125 24.31640625 4.53125 24.87890625 8.03125 C24.22339481 12.10998785 23.52115401 13.03892892 20.31640625 15.53125 C16.02257281 16.355971 11.6806011 16.1339839 7.31640625 16.09375 C5.53363281 16.12952148 5.53363281 16.12952148 3.71484375 16.16601562 C2.57273437 16.16408203 1.430625 16.16214844 0.25390625 16.16015625 C-0.78894531 16.16088135 -1.83179688 16.16160645 -2.90625 16.16235352 C-5.68359375 15.53125 -5.68359375 15.53125 -8.0234375 13.18334961 C-10.05337054 9.94053157 -10.32359824 8.29127636 -9.68359375 4.53125 C-6.727255 0.7381791 -4.7462784 0.0215303 0 0 Z " fill="#FD889E" transform="translate(332.68359375,233.46875)"/>
<path d="M0 0 C2.18359375 1.41015625 2.18359375 1.41015625 4 4 C4.62108406 7.32085168 4.60362807 10.56741726 4.5625 13.9375 C4.58634766 14.83146484 4.61019531 15.72542969 4.63476562 16.64648438 C4.62459749 21.21197526 4.47078466 23.36272804 1.69140625 27.125 C-1 29 -1 29 -4.625 29.0625 C-8.37256437 27.88271122 -9.05920449 27.27749997 -11 24 C-11.60122939 20.68688096 -11.46391582 17.36201289 -11.4375 14 C-11.45748047 13.09765625 -11.47746094 12.1953125 -11.49804688 11.265625 C-11.49319605 4.70730491 -11.49319605 4.70730491 -9.19140625 1.40625 C-5.95963671 -0.6676128 -3.75309462 -0.53615637 0 0 Z " fill="#030305" transform="translate(196,199)"/>
<path d="M0 0 C3.32388291 1.02715 4.2994839 2.65565736 6.03515625 5.62890625 C6.55298144 8.66834671 6.50446033 11.61659683 6.41015625 14.69140625 C6.40886719 15.49384766 6.40757812 16.29628906 6.40625 17.12304688 C6.34568351 21.1776366 6.23620893 24.10897249 4.03515625 27.62890625 C0.54391608 29.9563997 -0.85706626 30.13189941 -4.96484375 29.62890625 C-7.12890625 28.26171875 -7.12890625 28.26171875 -8.96484375 25.62890625 C-9.54061276 22.12058955 -9.47693966 18.6758216 -9.40234375 15.12890625 C-9.40943359 14.17886719 -9.41652344 13.22882813 -9.42382812 12.25 C-9.35377402 4.58715858 -8.72027093 0.28563508 0 0 Z " fill="#030406" transform="translate(341.96484375,198.37109375)"/>
<path d="M0 0 C3.33175928 0.98718794 4.35200301 1.33456731 6.375 4 C7.00695306 7.44843993 6.83839012 10.93762631 6.8125 14.4375 C6.83248047 15.39205078 6.85246094 16.34660156 6.87304688 17.33007812 C6.86818045 24.28419597 6.86818045 24.28419597 4.56640625 27.625 C1.29922927 29.6749934 -0.85698352 29.60557408 -4.625 29 C-7.87580629 26.10974826 -8.88781501 23.75571773 -9.19140625 19.53125 C-9.21121295 17.85428313 -9.20932849 16.17694178 -9.1875 14.5 C-9.21134766 13.65824219 -9.23519531 12.81648437 -9.25976562 11.94921875 C-9.24929327 7.51591997 -9.03962709 5.55564239 -6.31640625 1.90625 C-3.625 0 -3.625 0 0 0 Z " fill="#EBB861" transform="translate(454.625,232)"/>
<path d="M0 0 C3.33175928 0.98718794 4.35200301 1.33456731 6.375 4 C7.00695306 7.44843993 6.83839012 10.93762631 6.8125 14.4375 C6.83248047 15.39205078 6.85246094 16.34660156 6.87304688 17.33007812 C6.86817089 24.29785839 6.86817089 24.29785839 4.53125 27.625 C1.52164491 29.54416846 -0.11987194 29.64379903 -3.625 29 C-6.41070187 26.96098111 -8.31766048 25.34833327 -9.10620117 21.88891602 C-9.29866426 19.40745266 -9.30715065 16.98795849 -9.25 14.5 C-9.26933594 13.65824219 -9.28867188 12.81648437 -9.30859375 11.94921875 C-9.27374013 7.52280861 -9.03247499 5.54513547 -6.3125 1.90625 C-3.625 0 -3.625 0 0 0 Z " fill="#E9B760" transform="translate(79.625,232)"/>
<path d="M0 0 C3.38036346 0.65913117 6.73264357 1.39001901 10.08203125 2.19140625 C11.01337891 2.41376953 11.94472656 2.63613281 12.90429688 2.86523438 C13.86400391 3.09533203 14.82371094 3.32542969 15.8125 3.5625 C17.28106445 3.91344727 17.28106445 3.91344727 18.77929688 4.27148438 C21.18639457 4.84683943 23.59328721 5.42303742 26 6 C25.01 6.495 25.01 6.495 24 7 C24 11.29 24 15.58 24 20 C3.53846154 12.46153846 3.53846154 12.46153846 0.4375 7.5 C-0.01094404 4.93746263 -0.14834218 2.5959881 0 0 Z " fill="#EE476A" transform="translate(197,415)"/>
</svg>
